<svg xmlns="http://www.w3.org/2000/svg" viewBox="0 0 32 32" width="32" height="32">
  <defs>
    <linearGradient id="pageGrad" x1="0%" y1="0%" x2="100%" y2="100%">
      <stop offset="0%" stop-color="#8b5cf6" />
      <stop offset="100%" stop-color="#6366f1" />
    </linearGradient>
    <linearGradient id="overlayGrad" x1="0%" y1="0%" x2="100%" y2="100%">
      <stop offset="0%" stop-color="#06b6d4" stop-opacity="0.8" />
      <stop offset="100%" stop-color="#3b82f6" stop-opacity="0.8" />
    </linearGradient>
  </defs>
  <path d="M6 8a2 2 0 0 1 2-2h10l6 6v12a2 2 0 0 1-2 2H8a2 2 0 0 1-2-2V8z" fill="url(#overlayGrad)" transform="translate(2, 2)" />
  <path d="M6 4a2 2 0 0 1 2-2h10l6 6v14a2 2 0 0 1-2 2H8a2 2 0 0 1-2-2V4z" fill="url(#pageGrad)" />
  <path d="M18 2v6h6L18 2z" fill="#ede9fe" opacity="0.3" />
  <rect x="10" y="11" width="8" height="2" rx="1" fill="#ffffff" />
  <rect x="10" y="15" width="12" height="2" rx="1" fill="#ffffff" />
  <rect x="10" y="19" width="10" height="2" rx="1" fill="#ffffff" />
  <path d="M26 2l.8 1.8 1.8.8-1.8.8-.8 1.8-.8-1.8-1.8-.8 1.8-.8.8-1.8z" fill="#facc15" />
</svg>